# xmcd CD database file
#
# Track frame offsets:
#	150
#	21061
#	47384
#	68665
#	92238
#	110457
#	136505
#	158382
#	186393
#	211180
#	227696
#	259639
#	262523
#
# Disc length: 3828 seconds
#
# Revision: 1
# Processed by: cddbd v1.5.1PL2 Copyright (c) Steve Scherf et al.
# Submitted via: CDex 1.51
#
DISCID=950ef20d
DTITLE=Carla White - A Voice in the Night
DYEAR=2005
DGENRE=Jazz
TTITLE0=Time on My Hands
TTITLE1=It's Kind of Lonesome Out Tonight
TTITLE2=You and the Night and the Music
TTITLE3=Charade
TTITLE4=Four On Six
TTITLE5=May I Come In?
TTITLE6=I Still Love You
TTITLE7=Sweet and Slow
TTITLE8=Your Mind is on Vacation
TTITLE9=What Are You Doing the Rest of Your Life?
TTITLE10=Peace of Mind
TTITLE11=I Had No Time To Hate
TTITLE12=I'll Never Pass This Way Again
EXTD=YEAR: 2005
EXTT0=
EXTT1=
EXTT2=
EXTT3=
EXTT4=
EXTT5=
EXTT6=
EXTT7=
EXTT8=
EXTT9=
EXTT10=
EXTT11=
EXTT12=
PLAYORDER=
